<?xml version="1.0"?>
<svg xmlns="http://www.w3.org/2000/svg" viewBox="0 0 100 11" width="500" height="55">
  <title>Digital Playground logo</title>
  <path transform="matrix(0.01213572,0,0,0.01213572,0.0383543,0.07652016) scale(0.75)" style="fill:#ed202d;stroke-width:1.33333337"
       d="m 1423.3125,26.632812 c -7.8033,0.02333 -15.6062,0.106537 -23.4063,0.0332 H 790.64062 c -6.93333,0.04 -13.89343,-0.253308 -20.77343,0.693359 20.06666,1.093333 40.05286,5.494141 58.51953,13.494141 23.84,10.386666 43.98588,27.640182 61.19922,46.853515 14.65333,16.533333 25.71987,36.292013 31.5332,57.638673 7.73333,28.14667 7.94742,57.6149 8.10742,86.60157 l 0.0274,656.09179 c -0.14667,23.53334 0.34567,47.08156 -0.34766,70.60156 -1.18667,30.98667 -5.53359,62.38578 -17.93359,91.03908 -7.86667,18.3467 -19.21217,35.093 -32.79883,49.6797 -15.01334,16.8666 -32.31964,32.374 -53.29297,41.334 -17.14667,7.84 -35.98849,10.2672 -54.53516,12.2539 8.97334,-0.72 17.97427,-0.3748 26.96094,-0.4414 70.18667,-0.053 140.37388,0.093 210.56061,-0.08 33.28,-0.1867 66.8921,-14.3455 88.1055,-40.4121 14,-16.88 22.4531,-38.0799 24.7597,-59.8399 0.9867,-8.4533 0.7351,-16.9731 0.7617,-25.4531 l 0.012,-282.38672 h 283.8808 c 26.4134,-0.22666 53.8523,1.97334 78.959,-8 19.7867,-7.29333 36.2009,-22.93312 44.2676,-42.45312 10.5866,-24.02667 9.9074,-50.81448 9.7207,-76.50781 V 154.67969 c -0.1733,-17.12 0.786,-34.36065 -2.0274,-51.33399 -3.1066,-20.119997 -11.4126,-40.252914 -26.9726,-53.906247 -17.04,-15.253333 -40.28,-21.185182 -62.6133,-22.478515 -7.8,-0.313334 -15.6049,-0.351459 -23.4082,-0.328126 z m -776.65625,0.0078 c -6.24063,0.01646 -12.47898,0.05539 -18.70898,0.02539 H 194.69336 c -4.08,0.02667 -8.1599,0.281562 -12.22656,0.601562 26.02666,1.84 52.79981,8.451458 74.14648,24.078125 19.04,13.933333 29.63951,36.494844 33.82617,59.214851 0.64,5.12 3.13302,10.54586 0.67969,15.50586 13.01333,-2.77334 26.22766,-4.45396 39.34766,-6.64063 32.68,-4.73333 66.227,-8.1732 99.01367,-2.5332 -14.44,3.98666 -28.74636,8.49367 -42.67969,14.01367 -10.92,4.41333 -21.74708,9.41464 -31.09375,16.66797 -8.17333,6.29333 -15.86646,13.94651 -19.45312,23.83984 19.46666,-1.66666 39.03987,-1.01453 58.5332,0.10547 22.04,1.52 44.44021,3.21323 65.54687,10.22656 0,-3.50666 -0.002,-6.99885 0.0117,-10.49218 h 148.89453 c 16.25334,-0.0267 32.73274,1.70638 48.05274,7.37304 18.70667,6.57334 34.66672,20.81383 42.38672,39.17383 9.93333,21.98667 8.80104,46.61349 8.73437,70.16016 v 597.3457 c -0.13333,24.25333 1.70498,49.56073 -8.06836,72.41406 -7.53333,19.10667 -23.69156,34.14563 -42.85156,41.26563 -25.90667,10.31998 -54.26721,8.25438 -81.56055,8.42778 H 460.33398 V 184.48046 c -22.30666,4.93333 -44.34674,11.57195 -65.08007,21.25195 -11.94667,5.73334 -23.71998,12.3743 -33.30664,21.6543 -8.89334,8.89333 -12.5606,21.72034 -12.94727,34.01367 -0.26667,11.6 1.40029,23.51966 6.62695,33.98633 12.89334,28.48 12.13269,60.97388 24.66602,89.56055 8.17333,19.73333 17.32114,39.03997 26.50781,58.30664 -8.62667,0.38666 -17.24018,0.71914 -25.85351,1.11914 -1.09334,21.58666 -2.49487,43.26718 -0.90821,64.86718 2.32,18.56 2.4944,37.26659 3.42774,55.91993 1.30666,26.2 2.70612,53.07976 12.43945,77.75976 9.90667,27.53334 14.73359,56.46761 20.93359,84.96094 2.29334,11.2 8.34599,21.67937 7.97266,33.35937 -0.13333,7.45334 -4.61279,14.09279 -10.43945,18.43946 -9.96,7.61333 -21.22641,13.52062 -33.06641,17.64062 -5.58667,1.74667 -11.55945,3.71904 -17.43945,2.34571 -6.89334,-1.57334 -13.70662,-3.4536 -20.61328,-4.9336 -6,2.81334 -11.88102,5.908 -18.04102,8.36133 -8.36,0.37333 -16.75948,-0.13424 -25.13281,-0.26758 -14.14667,0.12 -26.88084,-7.27872 -38.1875,-15.02539 1.96,-16.78667 3.9482,-33.58833 5.9082,-50.375 -28.70667,-39.65333 -57.41409,-79.30565 -86.10742,-118.95898 -1.69333,-2.26667 -3.12083,-4.7737 -5.1875,-6.70703 -32.56,-15.62667 -63.61331,-36.23909 -86.306641,-64.73243 -10.8,-11.10666 -20.758568,-23.09398 -28.865235,-36.33398 -18.52,-29.6 -27.708281,-65.44057 -22.988281,-100.25391 -6.506667,34.73334 -1.426484,70.8137 10.853516,103.70703 -6.626667,18.46667 -7.146224,38.54592 -5.212891,57.89258 4.133333,37.98667 19.333255,73.92073 38.919922,106.41406 11.613333,19.57334 25.84109,37.39987 38.12109,56.53321 17.78667,27.06666 33.80016,55.3195 47.16016,84.82617 19.37333,43.18667 33.29292,89.82654 32.90625,137.5332 -0.22667,30.08 -6.87953,60.25481 -20.51953,87.13481 -17.17333,34.24 -44.77511,62.3592 -76.14844,83.8925 -22.239999,13.92 -47.893072,22.4675 -74.066405,24.4942 15.2,-0.72 30.41362,-0.228 45.626953,-0.3613 H 618.69336 c 27.12,-0.1467 54.4257,0.9074 81.3457,-3.1993 43.37334,-6.0666 86.33425,-22.9866 118.26758,-53.6132 28,-26.3734 46.18602,-62.0937 53.66602,-99.627 6.85333,-31.56 5.26807,-63.9994 5.4414,-96.05274 v -656.041 c 0.0133,-18.77334 -1.14763,-37.59974 -4.65429,-56.06641 -7.16,-39.61333 -25.93279,-77.50555 -55.43946,-105.185547 C 786.41365,52.78737 745.0143,35.225938 702.6543,29.585938 684.1143,26.745937 665.37813,26.59125 646.65625,26.640625 Z m 474.84965,144.599608 210.6269,0.0137 c 19.28,-0.13334 36.9865,17.3331 36.4531,36.75976 l -0.066,367.9336 c 0.04,12.90666 -11.5987,23.96002 -24.4121,23.69335 -74.2,0.0667 -222.6015,0.0254 -222.6015,0.0254 z" />
  <path transform="matrix(0.09249838,0,0,0.09249838,12.990285,-82.25655) scale(0.75)" style="fill:#000000;stroke-width:1.33333337"
       d="m 73.359375,1190.5742 c -14.226667,0.027 -28.453021,0 -42.679687,0.012 -0.02667,49.36 -0.01367,98.7201 -0.01367,148.0801 h 45.386718 c 7.733334,0.08 15.813907,-2.2917 21.253907,-8.0117 5.199997,-5.24 7.225807,-12.814 7.119137,-20.0273 -0.0133,-30.6534 -0.0133,-61.3077 0,-91.961 0.18667,-8.4267 -2.98497,-17.2921 -9.931637,-22.4121 -5.946667,-4.6933 -13.774766,-5.8263 -21.134766,-5.6797 z m 437.654295,0.6465 c -10.03666,0.02 -20.07409,0.08 -30.10742,0.047 0.0133,49.1333 3.4e-4,98.2651 0.0137,147.3984 7.36,0 14.72008,0 22.08008,-0.012 v -53.3086 c 11.45333,-0.04 22.90638,0.015 34.37305,-0.012 3.97333,-0.027 8.45338,-0.3881 11.38672,-3.4414 3.62666,-3.64 3.3744,-9.1733 3.42773,-13.9199 -0.16,-21.8 0.22583,-43.6001 -0.1875,-65.3868 0.0533,-5.9466 -4.92086,-11.1318 -10.88086,-11.1718 -10.03333,-0.1934 -20.0688,-0.2134 -30.10547,-0.1934 z m -136.42773,15.9258 c -6.89334,0.027 -13.77268,7e-4 -20.66602,0.027 -8.49333,43.8267 -17.01345,87.6522 -25.4668,131.4922 h 19.50782 c 1.34666,-8.28 2.59898,-16.5595 3.95898,-24.8262 8.16,0 16.32047,-0.026 24.48047,0.014 1.30667,8.2533 2.62625,16.5208 3.90625,24.8008 6.52,0.027 13.05422,0.013 19.57422,0 -8.44,-43.8267 -16.78826,-87.6811 -25.29492,-131.5078 z m -205.2793,0.1601 c -4.14667,0.04 -9.03906,-0.053 -12.03906,3.3204 -2.68,2.8933 -2.69344,7.0667 -2.77344,10.7734 0.0133,34.6533 0,69.292 0,103.9453 0.08,3.6133 0.26539,7.7351 3.02539,10.4551 3.08,3.12 7.78617,2.8526 11.82617,2.8926 13.36,-0.1467 26.74742,0.1605 40.10742,-0.1329 5.73335,0.1334 10.25266,-5.0269 9.97266,-10.6269 0.18667,-19.8667 0.0267,-39.7329 0.0801,-59.5996 -9.12,-0.013 -18.22537,-0.013 -27.33203,0 -0.0133,5.5733 -0.0133,11.1594 0,16.7461 2.52,-0.013 5.03893,2e-4 7.57226,0.014 v 36.6386 c -8.49333,0.013 -16.98518,0.013 -25.47851,0 -0.0133,-32.4666 -0.0267,-64.9317 0,-97.3984 h 25.47851 c 0.10667,7.56 -0.17291,15.1333 0.0937,22.6933 6.22667,1.1867 13.16097,0.1068 19.6543,0.4668 -0.14667,-10.32 0.33344,-20.6542 -0.22656,-30.9609 -0.26667,-5.1467 -4.88094,-9.1327 -9.96094,-9.0527 -13.33333,-0.3867 -26.66667,-0.014 -40,-0.1739 z m 75.24024,0.014 c -3.29335,0 -6.58753,0.01 -9.88086,0.014 v 131.332 c 6.58666,0 13.17309,0 19.75976,-0.012 -0.0133,-43.7733 -0.0133,-87.5353 0,-131.3086 -3.29333,-0.02 -6.58557,-0.025 -9.8789,-0.025 z m -124.88086,0.014 c -0.0133,43.7733 0,87.5453 0,131.332 6.56,0 13.11968,0.015 19.67968,-0.025 -0.0267,-43.76 0.0146,-87.5333 -0.0254,-131.3066 -6.54666,0 -13.09429,-0.013 -19.65429,0 z m 212.82812,0 c -20.97333,-0.013 -41.94659,-0.015 -62.91992,0.012 0,5.8267 -0.002,11.6541 0.0117,17.4941 7.21333,0 14.44096,-0.013 21.65429,0 0.0133,37.9334 0.0133,75.8678 0,113.8145 6.53334,0.027 13.05261,0.013 19.58594,0 0.0133,-37.9333 3.4e-4,-75.8678 0.0137,-113.8145 7.21334,-0.027 14.43935,0.026 21.66602,-0.027 -0.0133,-5.84 0.002,-11.6518 -0.0117,-17.4785 z m 81.59961,0 c -0.0133,43.7733 -0.0137,87.5587 -0.0137,131.332 17.22666,0 34.43935,0 51.66601,-0.012 0,-5.8533 0.0133,-11.7072 0,-17.5605 -10.66666,-0.027 -21.33333,-7e-4 -32,-0.027 0,-37.9067 0.0133,-75.8124 0,-113.7324 -6.56,-0.013 -13.10567,-0.013 -19.65234,0 z m 255.43359,0.4023 c -3.44666,0 -6.89317,0.01 -10.33984,0.09 -8.33333,43.6266 -16.89492,87.2131 -25.29492,130.8398 h 19.42773 c 1.34667,-8.2533 2.57232,-16.5194 3.95899,-24.7461 8.12,0 16.22765,-0.026 24.34765,0.014 1.30667,8.24 2.61292,16.4791 3.90625,24.7324 6.49334,0 12.97347,-0.013 19.4668,0 -8.36,-43.64 -16.73281,-87.2799 -25.13281,-130.9199 -3.44667,0.013 -6.89318,-0.01 -10.33985,-0.01 z m 145.71485,0.1446 c -7.37834,-0.017 -14.75638,0.025 -22.12305,0.2519 -6.13333,0.093 -9.8787,6.2673 -9.33203,11.9473 -0.10667,34.6 0.012,69.2128 -0.0547,103.8261 0.08,4.0667 -0.092,8.8266 3.05469,11.92 2.70667,2.76 6.82646,2.8405 10.45312,2.8672 12.45334,-0.04 24.90605,-0.04 37.35938,0 3.68,-0.04 7.89437,-0.054 10.73437,-2.8008 2.86667,-2.6667 3.11855,-6.8389 3.17188,-10.4922 -0.0133,-18.9067 0.002,-37.8277 -0.0117,-56.7344 -9.08,-0.013 -18.16023,-0.013 -27.24023,0 -0.0133,5.5467 -0.0133,11.0943 0,16.6543 2.49333,-0.013 4.99919,0.012 7.50586,0.039 -0.04,12.1466 0.0127,24.3068 -0.0273,36.4668 -8.44,-0.013 -16.87997,0.013 -25.30664,0 -0.0133,-32.36 -0.0133,-64.7198 0,-97.0664 8.42667,-0.027 16.86664,-0.014 25.30664,-0.014 0.04,7.72 6.8e-4,15.4405 0.0273,23.1738 h 19.73437 c -0.13333,-10.1733 0.30516,-20.3592 -0.21484,-30.5058 -0.08,-5.6934 -5.43959,-9.8011 -10.90625,-9.4278 -7.37334,-0.013 -14.75253,-0.089 -22.13086,-0.1054 z m -238.17383,0.012 c -3.27833,-0.01 -6.55479,0.021 -9.82813,0.2012 0.21334,43.5066 0.0401,87.0268 0.0801,130.5468 17.14667,0.053 34.27912,0.027 51.42578,0.014 0,-5.8267 0.0133,-11.6538 0,-17.4805 -10.61333,-0.027 -21.22617,-3e-4 -31.82617,-0.014 -0.0133,-37.7467 0.013,-75.4936 -0.0137,-113.2403 -3.28,0.027 -6.55956,-0.019 -9.83789,-0.027 z m 336.29102,0 c -16.56001,0.053 -33.13336,7e-4 -49.69336,0.027 -0.0133,43.5867 0,87.1611 0,130.7344 6.56,0.013 13.11968,0.026 19.67968,-0.014 -0.0267,-37.96 -0.0133,-75.9208 0,-113.8808 8.16,-0.013 16.32047,-0.013 24.48047,0 0,13.8 0.0263,27.6007 -0.0137,41.414 -6.37333,-0.013 -12.75948,-0.027 -19.13281,0 0.16,4.52 -0.61339,9.1987 0.61328,13.6387 6.8,19.5733 14.0543,39.0146 20.6543,58.668 6.89333,0.3733 13.80036,0.1055 20.70703,0.1855 -7.17334,-19.7067 -14.34748,-39.3991 -21.49414,-59.1191 4.33333,-0.2534 8.867,0.052 13.01367,-1.5078 4.28,-1.9334 5.32023,-7.0784 5.24023,-11.3184 0.04,-14.6667 -0.0279,-29.3333 0.0254,-44 -0.0667,-4.1733 9.7e-4,-9.0814 -3.3457,-12.1348 -2.88,-2.68 -7.06771,-2.64 -10.73437,-2.6933 z m 43.98632,0 c -2.93333,0.04 -5.97276,-0.079 -8.74609,0.9609 -4.54667,1.6 -6.17333,6.7856 -6,11.1856 -0.0533,35.1066 0.0146,70.2136 -0.0254,105.3203 0.0133,3.6133 0.21198,7.7077 2.94531,10.4277 2.33333,2.4133 5.86641,2.8656 9.06641,2.8789 13.34666,0.027 26.68067,-0.039 40.02734,0.027 3.66667,-0.04 7.85373,-0.026 10.70703,-2.7325 2.9333,-2.6533 3.1592,-6.8942 3.1992,-10.5742 -0.027,-34.6666 -0.027,-69.3333 0,-104 -0.067,-3.48 -0.1592,-7.3327 -2.5859,-10.0527 -2.4267,-2.92 -6.46668,-3.4007 -10.00002,-3.4141 -12.86666,-0.04 -25.73455,0.039 -38.58789,-0.027 z m -248.21093,0.012 c -3.415,0 -6.82886,0.029 -10.24219,0.029 5.44,17.64 11.08122,35.2132 16.58789,52.8398 3.10667,9.9867 7.49297,19.64 9.29297,30 0.34666,15.9467 0.0265,31.9193 0.14648,47.8926 h 19.66602 c -0.0133,-14.2 0.0409,-28.3993 -0.0391,-42.5859 -0.48001,-7.12 2.73218,-13.6941 4.49218,-20.4141 7.56,-22.4667 14.56097,-45.1191 21.6543,-67.7324 -6.77333,-0.04 -13.54698,-0.014 -20.32031,-0.014 -5.18667,18.8267 -10.28047,37.6929 -15.48047,56.5196 -5.22667,-18.8 -10.39919,-37.5992 -15.50586,-56.4258 -3.42,-0.093 -6.83695,-0.1127 -10.25195,-0.1094 z m 314.62503,0.016 c -0.04,39.16 0.026,78.3065 -0.027,117.4531 0.013,3.64 0.2134,7.8138 3.0801,10.4805 2.7467,2.7333 6.8538,2.7865 10.4805,2.8399 12.8933,-0.053 25.8,-0.027 38.6933,-0.014 3.5867,0 7.6397,-0.2931 10.293,-3.0664 2.6267,-2.7067 2.8682,-6.7209 2.9082,-10.2676 -0.027,-39.1467 -7e-4,-78.2791 -0.027,-117.4258 -6.52,-0.013 -13.0543,-0.013 -19.5743,0 -0.027,37.9734 0.015,75.9329 -0.012,113.9063 -8.7466,0.013 -17.4952,0 -26.2285,0 -0.04,-37.9734 0.015,-75.9463 -0.025,-113.9063 -6.52,-0.013 -13.0405,-0.013 -19.5605,0 z m 97.7871,0 c -5.7467,-0.013 -11.4796,-0.013 -17.2129,0.014 -0.013,43.5733 -4e-4,87.1474 -0.014,130.7207 6.4,0.013 12.7859,0.027 19.1992,0 -0.3866,-26.92 0.7334,-53.8817 -0.6133,-80.7617 9.8134,27.0533 20.3866,53.8401 30.5333,80.7734 5.7333,-0.013 11.4798,0 17.2265,0 0,-43.5867 0,-87.1594 -0.012,-130.7461 -6.3867,-0.013 -12.7751,-0.013 -19.1484,0 0.2133,26.12 -0.5063,52.2543 0.4003,78.3477 -9.9866,-26.16 -20.2393,-52.241 -30.3593,-78.3477 z m 103.7461,0 c -13.16,-0.013 -26.3068,-0.013 -39.4668,0.014 -0.013,43.5733 0.013,87.1474 0,130.7207 12.7333,0.053 25.4662,-0.028 38.2129,0.039 6.2266,0.1466 12.8018,-0.8664 17.9218,-4.6797 6.1467,-4.3334 9.1324,-11.9877 9.0391,-19.3477 0,-27.5333 0.013,-55.0526 -0.014,-82.5859 0.04,-6.76 -2.3459,-13.7599 -7.5859,-18.2266 -4.8933,-4.4133 -11.6674,-6.0269 -18.1074,-5.9336 z M 66.513672,1209.668 c 2.734453,0.041 5.455625,0.2351 8.140625,0.7851 5.453333,1.2 7.785521,7.0805 7.492187,12.1739 -0.01333,28.48 0.120261,56.9866 -0.06641,85.4668 0.16,5.12 -3.359948,10.2263 -8.613281,10.9863 -6.813333,1.0533 -13.773958,0.2804 -20.640625,0.4804 0.01333,-36.6 0.02667,-73.1867 0,-109.7734 4.533333,0.1667 9.130078,-0.1881 13.6875,-0.1191 z M 503,1210.2676 c 8.93333,-0.027 17.87951,-0.027 26.82617,0 0,18.68 0.013,37.3731 -0.0137,56.0664 -8.93333,-0.013 -17.86583,0 -26.8125,0 z m 712.3594,14.4082 c 3.3166,-0.02 6.6202,0.1308 9.8535,0.9375 4.4267,1.2266 6.2937,6.0666 6.0937,10.3066 0.04,24.8934 0.04,49.7864 0,74.6797 0.2134,4.2933 -1.8142,9.1204 -6.2675,10.4004 -6.4,1.56 -13.0933,0.5595 -19.6133,0.8262 -0.013,-32.36 -0.013,-64.7198 0,-97.0664 3.2866,0.1266 6.6169,-0.064 9.9336,-0.084 z m -226.46682,0.07 c 0.0533,32.3467 6.8e-4,64.7064 0.0273,97.0664 -8.92,0.027 -17.82609,0.014 -26.74609,0.014 -0.0133,-32.36 -0.0133,-64.7064 0,-97.0664 8.90666,-0.027 17.81208,-4e-4 26.71875,-0.014 z m -624.78516,13.5215 c 3.22667,19.5066 6.34518,39.0386 9.47852,58.5586 H 354.5332 c 3.18667,-19.52 6.29422,-39.052 9.57422,-58.5586 z m 305.29297,0.373 c 3.2,19.44 6.30612,38.9057 9.43945,58.3457 -6.32,0.013 -12.65265,0.014 -18.97265,0.014 3.17333,-19.4533 6.27987,-38.9194 9.5332,-58.3594 z" />
</svg>