<?xml version="1.0" encoding="UTF-8" standalone="no"?>
<svg
   xmlns:dc="http://purl.org/dc/elements/1.1/"
   xmlns:cc="http://creativecommons.org/ns#"
   xmlns:rdf="http://www.w3.org/1999/02/22-rdf-syntax-ns#"
   xmlns:svg="http://www.w3.org/2000/svg"
   xmlns="http://www.w3.org/2000/svg"
   xmlns:sodipodi="http://sodipodi.sourceforge.net/DTD/sodipodi-0.dtd"
   xmlns:inkscape="http://www.inkscape.org/namespaces/inkscape"
   viewBox="0 0 100 42"
   version="1.1"
   id="svg34"
   sodipodi:docname="Vivid Entertainment logo.svg"
   width="100"
   height="42"
   inkscape:version="0.92.4 (5da689c313, 2019-01-14)">
  <title
     id="title38">Girlsway logo</title>
  <metadata
     id="metadata38">
    <rdf:RDF>
      <cc:Work
         rdf:about="">
        <dc:format>image/svg+xml</dc:format>
        <dc:type
           rdf:resource="http://purl.org/dc/dcmitype/StillImage" />
        <dc:title>Girlsway logo</dc:title>
        <cc:license
           rdf:resource="http://scripts.sil.org/OFL" />
        <dc:date>9 enero 2020</dc:date>
        <dc:creator>
          <cc:Agent>
            <dc:title>EEIM</dc:title>
          </cc:Agent>
        </dc:creator>
      </cc:Work>
      <cc:License
         rdf:about="http://scripts.sil.org/OFL">
        <cc:permits
           rdf:resource="http://scripts.sil.org/pub/OFL/Reproduction" />
        <cc:permits
           rdf:resource="http://scripts.sil.org/pub/OFL/Distribution" />
        <cc:permits
           rdf:resource="http://scripts.sil.org/pub/OFL/Embedding" />
        <cc:permits
           rdf:resource="http://scripts.sil.org/pub/OFL/DerivativeWorks" />
        <cc:requires
           rdf:resource="http://scripts.sil.org/pub/OFL/Notice" />
        <cc:requires
           rdf:resource="http://scripts.sil.org/pub/OFL/Attribution" />
        <cc:requires
           rdf:resource="http://scripts.sil.org/pub/OFL/ShareAlike" />
        <cc:requires
           rdf:resource="http://scripts.sil.org/pub/OFL/DerivativeRenaming" />
        <cc:requires
           rdf:resource="http://scripts.sil.org/pub/OFL/BundlingWhenSelling" />
      </cc:License>
    </rdf:RDF>
  </metadata>
  <sodipodi:namedview
     pagecolor="#ffffff"
     bordercolor="#666666"
     borderopacity="1"
     objecttolerance="10"
     gridtolerance="10"
     guidetolerance="10"
     inkscape:pageopacity="0"
     inkscape:pageshadow="2"
     inkscape:window-width="1366"
     inkscape:window-height="705"
     id="namedview36"
     showgrid="false"
     inkscape:showpageshadow="false"
     inkscape:zoom="1"
     inkscape:cx="52.701299"
     inkscape:cy="17.537785"
     inkscape:window-x="-8"
     inkscape:window-y="-8"
     inkscape:window-maximized="1"
     inkscape:current-layer="#336699ff" />
  <defs
     id="defs4">
    <style
       id="style2">.cls-1{fill:#eb2227;}</style>
  </defs>
  <g
     id="#d32727ff"
     transform="matrix(0.01656116,0,0,0.01656116,185.44458,-2.739453)"
     style="fill:#00ff00">
    <g
       id="#336699ff"
       transform="matrix(5.98363,0,0,5.98363,-12942.258,-2969.5715)">
      <path
         style="fill:#0072b1;stroke-width:4.44934845"
         d="m 727.26877,532.64233 c -4.79642,0 -9.53188,1.7476 -14.21706,5.23146 -4.68962,3.48828 -9.04752,7.79679 -13.07865,12.91354 -4.03553,5.12565 -7.58023,10.41348 -10.62804,15.85949 -3.05671,5.45047 -5.44703,10.13635 -7.18673,14.06063 -9.15227,21.14332 -15.59024,42.87928 -19.2921,65.21945 -3.7063,22.34463 -5.553,44.95645 -5.553,67.84389 0,4.14679 0.15738,9.59204 0.48666,16.3461 0.287,5.97575 0.82348,12.39402 1.53814,19.12699 -0.30747,0.29811 -0.60997,0.60903 -0.89508,0.98203 -1.41933,1.85088 -2.67271,3.54021 -3.76282,5.06633 -1.95769,3.05226 -5.01284,7.14499 -9.15072,12.26178 -4.14236,5.12566 -8.61691,10.18465 -13.40887,15.19902 -4.79637,5.01446 -9.64413,9.37682 -14.54728,13.07869 -4.9032,3.7063 -9.21168,5.55295 -12.91354,5.55295 -3.05225,0 -4.85376,-1.46485 -5.39658,-4.40587 -0.54726,-2.94102 -0.81686,-5.51061 -0.81686,-7.69079 0,-7.84865 0.65586,-15.58073 1.96396,-23.21132 1.30812,-7.63067 2.83111,-15.25917 4.5797,-22.88985 1.08564,-4.7919 1.63375,-9.03765 1.63375,-12.7484 0,-7.19015 -1.52744,-12.91387 -4.5797,-17.16301 -3.05225,-4.25357 -6.70045,-7.8434 -10.94957,-10.78446 -4.24913,-2.94101 -8.55763,-5.66796 -12.91354,-8.17741 -4.36036,-2.50495 -7.8467,-5.72171 -10.46291,-9.64605 0.65404,-5.23243 0.99067,-10.46194 0.99067,-15.69438 0,-1.74412 -0.11666,-4.03093 -0.33023,-6.8652 -0.21801,-2.82978 -0.76612,-5.60641 -1.63374,-8.33385 -0.87208,-2.71857 -1.96807,-5.12204 -3.27618,-7.19542 -1.30811,-2.06894 -3.15479,-3.10238 -5.553,-3.10238 -3.26582,0 -6.10076,1.41966 -8.49895,4.24947 -2.3982,2.83423 -4.41541,6.20836 -6.04833,10.1327 -1.63291,3.92433 -2.82819,7.95875 -3.58902,12.09667 -0.7653,4.14231 -1.14711,7.52518 -1.14711,10.14138 0,5.0189 0.65586,9.86211 1.96398,14.54728 1.30365,4.68518 3.47828,8.9892 6.53498,12.91353 -1.30812,11.11447 -4.74058,21.4702 -10.29781,31.05854 -3.66797,6.3316 -7.56648,12.52741 -11.56657,18.6664 -0.0844,0.12338 -0.11464,0.17103 -0.19987,0.29548 -4.03556,5.88648 -8.49701,11.61445 -13.40019,17.17173 -4.90319,5.56163 -9.92588,10.351 -15.04262,14.38216 -5.1212,4.03551 -9.86115,6.04831 -14.21706,6.04831 -2.83424,0 -5.0133,-1.19954 -6.53498,-3.59771 -1.53057,-2.39374 -2.68045,-5.23313 -3.44129,-8.49896 -0.76528,-3.27027 -1.19673,-6.54085 -1.30352,-9.81117 -0.11123,-3.27027 -0.16511,-5.88942 -0.16511,-7.84718 0,-10.02434 0.9751,-19.71973 2.93726,-29.09456 0.65406,-2.3937 1.52119,-5.17908 2.61574,-8.34252 1.09009,-3.15459 2.18163,-6.31745 3.27617,-9.48094 1.09009,-3.15458 2.01556,-6.20969 2.78085,-9.15071 0.76083,-2.94102 1.13841,-5.50186 1.13841,-7.68208 0,-4.79192 -2.50256,-7.19543 -7.51697,-7.19543 -6.97659,0 -12.15221,2.01721 -15.52926,6.04834 -3.38151,4.03558 -6.04146,8.98677 -8.00363,14.8688 -1.74414,5.67297 -3.32991,12.26806 -4.7448,19.78746 -1.4238,7.5194 -2.1204,14.33486 -2.1204,20.43047 0,4.79639 0.31924,10.40796 0.9733,16.83282 0.65406,6.43376 2.0693,12.5348 4.24947,18.31009 2.17573,5.77526 5.17675,10.68128 8.99429,14.7124 3.80864,4.03114 8.99318,6.04835 15.52927,6.04835 5.88204,0 11.87538,-1.90504 17.97988,-5.71812 6.10006,-3.80864 12.03952,-8.44504 17.81478,-13.89554 5.59256,-5.26941 10.70687,-10.81575 15.38153,-16.60684 0.84208,-0.67447 1.75511,-1.34664 2.43324,-2.02481 3.70186,-3.70186 7.076,-7.95201 10.1327,-12.74841 3.0478,-4.79194 5.88273,-9.81019 8.49895,-15.04261 2.61622,-5.23244 4.95692,-10.46194 7.03032,-15.69437 2.06894,-5.23243 3.97821,-10.23755 5.72679,-15.03395 4.79195,1.52613 9.19952,3.91645 13.23508,7.18672 4.03111,3.27027 6.053,7.63713 6.03964,13.07869 0,6.1045 -0.27405,12.09337 -0.81687,17.97986 -0.54728,5.88648 -0.81688,11.87984 -0.81688,17.97989 0,3.92433 0.1574,8.49799 0.48665,13.73043 0.32925,5.23244 1.25472,10.17579 2.78084,14.82537 1.52168,4.64506 3.8085,8.62123 6.86521,11.93154 3.05226,3.30586 7.29798,4.96205 12.74843,4.96205 5.23242,0 11.06389,-2.0838 17.49323,-6.2395 6.42484,-4.16459 12.63392,-9.17838 18.63165,-15.04263 5.98882,-5.86423 11.55071,-11.96149 16.67636,-18.28406 3.19609,-3.94296 5.73041,-7.306 7.95148,-10.40208 0.52765,2.87143 1.05426,5.74175 1.70326,8.61193 1.74416,7.74183 4.13872,14.71453 7.19543,20.92587 3.04781,6.21125 6.70045,11.27473 10.94957,15.19902 4.24911,3.91987 9.42899,5.88323 15.53796,5.88323 6.75411,0 13.50682,-2.12078 20.26539,-6.36987 6.74965,-4.25356 13.18758,-9.42477 19.29209,-15.52928 6.10007,-6.10006 11.60809,-12.64127 16.51126,-19.62229 1.87743,-2.67135 3.52432,-5.09349 5.16194,-7.50828 1.77937,-2.1825 3.55298,-4.54519 5.30097,-7.19545 3.15905,-4.79199 6.15138,-9.8015 8.98561,-15.03394 2.83422,-5.22799 5.4038,-10.51582 7.69077,-15.85948 2.29141,-5.33922 4.19198,-10.18247 5.7181,-14.54728 2.61179,3.92432 5.28482,8.55627 8.0123,13.8955 2.72299,5.34366 5.17168,10.84723 7.35185,16.51126 2.17573,5.66847 3.97724,11.32942 5.39658,16.99789 1.41047,5.66847 2.1204,11.01023 2.1204,16.02464 0,8.28468 -2.23741,15.09125 -6.70009,20.43047 -4.47161,5.33477 -11.06249,8.01234 -19.77876,8.01234 -4.3648,0 -8.3948,-0.44461 -12.09666,-1.31224 -3.71076,-0.87208 -7.41707,-2.50302 -11.12337,-4.90122 -1.09452,-0.65406 -2.02001,-1.19328 -2.78085,-1.63377 -0.76528,-0.43603 -1.79427,-0.66041 -3.10237,-0.66041 -3.48382,0 -5.23146,1.63967 -5.23146,4.9099 0,1.52167 0.32793,2.82476 0.98199,3.91925 0.65405,1.09009 1.5212,2.1816 2.61573,3.27619 4.79196,4.57393 10.83917,7.51237 18.14499,8.82048 7.29692,1.30811 14.10796,2.11526 20.43051,1.96399 27.78618,-0.6719 39.29955,-26.39296 41.0348,-33.02254 1.14347,-4.3737 1.79017,-8.71382 1.79017,-13.07863 0,-6.97213 -1.09177,-13.83707 -3.26749,-20.59563 -2.18018,-6.75856 -4.89847,-13.35814 -8.16872,-19.78741 -3.27029,-6.42935 -6.65752,-12.80447 -10.14138,-19.12699 -3.48828,-6.31807 -6.53453,-12.63938 -9.15072,-18.96188 1.96214,-5.00999 3.70961,-10.30266 5.24015,-15.84211 1.52168,-5.56166 2.28551,-11.06084 2.28551,-16.51125 0,-1.74417 -0.17052,-3.59086 -0.49534,-5.553 -0.32482,-1.96214 -0.86422,-3.87144 -1.62505,-5.7268 -0.76529,-1.85095 -1.8613,-3.3697 -3.27619,-4.57101 -1.41934,-1.1969 -3.10415,-1.79885 -5.06634,-1.79885 -3.91984,0 -7.41067,1.41965 -10.46293,4.24947 -3.05671,2.83423 -5.55477,6.20836 -7.51696,10.1327 -1.96215,3.92433 -3.48963,8.07099 -4.5797,12.42689 -1.09011,4.3648 -1.63374,8.16592 -1.63374,11.43621 0,5.88204 0.98376,11.66408 2.94595,17.32813 -4.45367,13.88231 -10.27033,26.92108 -17.39764,39.14904 -0.65517,0.69379 -1.29569,1.45231 -1.89446,2.35504 -1.52612,2.18463 -2.94132,4.41736 -4.24947,6.70878 -1.30809,2.2914 -2.7278,4.52436 -4.24947,6.70009 -2.18018,3.0567 -5.06896,6.86651 -8.66407,11.44493 -3.59506,4.57838 -7.51728,8.99017 -11.76644,13.24375 -4.24911,4.24908 -8.66538,7.8434 -13.24376,10.78446 -4.57839,2.94547 -8.82409,4.41455 -12.74842,4.41455 -4.57839,0 -8.17691,-2.06241 -10.79315,-6.20475 -2.6162,-4.14234 -4.69177,-9.05264 -6.21344,-14.72106 -1.52614,-5.66407 -2.50126,-11.38335 -2.93728,-17.16301 -0.44051,-5.77085 -0.65176,-10.29508 -0.65176,-13.56531 0,-1.9622 0.0539,-4.41085 0.16512,-7.35188 0.10679,-2.94102 0.48436,-5.28173 1.13841,-7.03028 0.43156,-1.52168 1.2493,-3.1658 2.45061,-4.90994 1.1969,-1.7441 2.23903,-3.26289 3.11107,-4.571 2.61624,-4.3604 5.27613,-8.55645 8.00361,-12.59201 2.72299,-4.03106 5.27946,-8.22295 7.68209,-12.58332 5.00999,-8.93429 9.91597,-19.06987 14.71239,-30.40677 4.79191,-11.32805 9.15436,-22.99547 13.07865,-34.98647 3.92434,-11.98655 7.07827,-23.96882 9.48093,-35.95978 2.39371,-11.98654 3.59772,-23.1059 3.59772,-33.35273 0,-3.0478 -0.33663,-6.31415 -0.99068,-9.80247 -0.65404,-3.48382 -1.68749,-6.70504 -3.10238,-9.64605 -1.41934,-2.94546 -3.37822,-5.34007 -5.88321,-7.19543 -2.50941,-1.85094 -5.72171,-2.78084 -9.64605,-2.78084 z m 0.9733,15.70306 c 1.30809,0 2.2919,0.48537 2.94595,1.46865 0.65404,0.97886 1.13936,2.12449 1.46863,3.4326 0.32482,1.30809 0.49534,2.7278 0.49534,4.24947 v 2.94595 c 0,10.46487 -1.63968,22.02012 -4.90992,34.65626 -3.2703,12.64059 -7.34989,25.32833 -12.2531,38.08016 -4.90315,12.74738 -10.35286,25.062 -16.34613,36.94176 -5.99773,11.87975 -11.60904,22.28936 -16.84148,31.22365 -0.21803,-1.74416 -0.32154,-3.27161 -0.32154,-4.57971 v -4.90123 c 0,-15.69285 1.90501,-32.0913 5.71811,-49.20353 3.8131,-17.10774 8.01811,-33.18276 12.592,-48.22155 0.86763,-2.61179 2.11682,-6.53847 3.75414,-11.76645 1.63737,-5.22797 3.60049,-10.3453 5.89192,-15.36415 2.28696,-5.0144 4.94689,-9.43067 8.0036,-13.24376 3.05226,-3.80865 6.32307,-5.72252 9.80248,-5.71812 z m -215.76732,34.08272 -84.40726,25.87921 c 9.57499,28.02644 63.02925,62.57243 80.65311,66.68809 -6.06,-4.06227 -29.53309,-27.48537 -31.77112,-44.0503 l -20.16111,-12.61807 20.72597,9.53307 12.99174,-22.2728 -10.61064,24.62783 c 0.53837,9.17459 15.7388,30.73068 23.85441,38.60157 -4.63178,-16.70284 -6.95906,-52.72925 8.7249,-86.3886 z M 389.2139,674.52613 c -11.77299,0 -22.7801,2.23295 -33.02251,6.7001 -10.24685,4.46714 -19.51081,10.84679 -27.79104,19.12698 -4.14235,4.14237 -8.06014,8.82821 -11.76645,14.06065 -3.7063,5.22798 -6.98137,10.78117 -9.81116,16.66766 -2.83423,5.88203 -5.06718,11.93372 -6.7001,18.14501 -1.6329,6.21129 -2.45061,12.2585 -2.45061,18.14498 0,3.92432 0.38181,7.74307 1.1471,11.44493 0.76084,3.71075 2.06388,6.98134 3.91925,9.81116 1.84648,2.83419 4.30384,5.12102 7.36055,6.86517 3.05224,1.7486 6.85783,2.61577 11.43621,2.61577 6.53609,-4e-5 13.24362,-2.17466 20.10897,-6.53502 6.86534,-4.35591 13.3527,-9.64819 19.45721,-15.85948 6.10005,-6.21574 11.70713,-12.74828 16.83279,-19.61361 5.11674,-6.86535 9.20507,-12.91259 12.26177,-18.14503 0.43604,4.3604 0.70563,8.78111 0.81687,13.2438 0.10678,4.4716 0.16512,8.87916 0.16512,13.23507 0,5.22794 -0.49402,12.48358 -1.47733,21.74268 -0.97885,9.26799 -2.45242,19.29557 -4.41458,30.08524 -1.96216,10.78967 -4.52749,21.6846 -7.68208,32.69232 -3.16349,11.00323 -6.92389,21.03097 -11.27979,30.07655 -4.36037,9.04553 -9.31158,16.39574 -14.86883,22.06424 -5.55723,5.664 -11.83332,8.49898 -18.80544,8.49898 -3.05226,0 -5.2852,-0.70555 -6.7001,-2.12044 -1.41934,-1.41934 -2.60571,-3.05026 -3.58902,-4.90122 -0.97885,-1.85536 -1.96266,-3.48634 -2.94595,-4.90122 -0.98331,-1.41934 -2.45243,-2.12912 -4.41459,-2.12912 -2.18018,0 -3.92335,0.81331 -5.23146,2.45064 -1.30811,1.63292 -1.96397,3.43443 -1.96397,5.39653 0,1.08571 0.21996,2.11912 0.66044,3.10239 0.43604,0.97887 0.86304,2.01229 1.30353,3.10244 2.61622,4.57834 5.99904,7.96114 10.14138,10.14133 4.1379,2.17572 8.81951,3.2675 14.05195,3.2675 13.50822,0 24.95994,-3.92226 34.33472,-11.76644 9.36587,-7.84421 17.21035,-18.04247 23.53287,-30.57191 6.31807,-12.53825 11.33187,-26.64544 15.04263,-42.3383 3.70631,-15.69284 6.47846,-31.3816 8.33383,-47.07445 1.84648,-15.6973 3.05045,-30.57259 3.59772,-44.63253 0.54281,-14.05553 0.81687,-25.76808 0.81687,-35.14291 0,-3.70186 -1.03343,-6.75254 -3.10238,-9.1507 -2.07339,-2.39376 -5.06996,-3.59771 -8.99429,-3.59771 -4.57393,0 -8.49616,1.90501 -11.76643,5.71811 -3.27028,3.81756 -5.77283,7.57793 -7.51697,11.27979 -1.74859,4.3648 -5.12273,10.25019 -10.1327,17.65834 -5.01441,7.41262 -10.63018,14.65936 -16.84147,21.74273 -6.21129,7.08781 -12.63608,13.19338 -19.28342,18.31009 -6.65176,5.12565 -12.48326,7.68211 -17.49323,7.68211 -3.92432,0 -6.5974,-1.24915 -8.0123,-3.75414 -1.42379,-2.50498 -2.1204,-5.50602 -2.1204,-8.99431 0,-4.57838 0.92547,-9.47996 2.78085,-14.7124 1.85093,-5.22798 4.19608,-10.34976 7.03032,-15.36413 2.82978,-5.01 5.93431,-9.75416 9.31582,-14.22576 3.37705,-4.4672 6.58935,-8.33106 9.64605,-11.60133 6.75411,-6.97213 14.54895,-13.02381 23.37646,-18.145 8.82751,-5.1212 18.35259,-7.69064 28.59053,-7.69946 3.04781,0 5.93662,0.49846 8.66406,1.47733 2.72301,0.97882 5.18037,2.01226 7.36055,3.10237 2.17573,1.09007 4.13462,2.12779 5.88323,3.11107 1.73968,0.97886 3.15492,1.46863 4.24947,1.46863 0.86762,0 1.68532,-0.27831 2.45062,-0.82556 0.76084,-0.54285 1.14709,-1.3561 1.14709,-2.45062 0,-3.0478 -1.41969,-5.71665 -4.24947,-8.00361 -2.83424,-2.28697 -6.21706,-4.14235 -10.14139,-5.56168 -3.92432,-1.41489 -7.84212,-2.5022 -11.76644,-3.26749 -3.92432,-0.76085 -7.08719,-1.14711 -9.48093,-1.14711 z m 719.8472,1.3209 c -9.5972,0 -18.8071,3.27063 -27.6346,9.81116 -8.8231,6.53608 -16.6675,14.65463 -23.533,24.34974 -6.8696,9.69958 -12.3733,20.0057 -16.5112,30.90215 -4.1423,10.9009 -6.2134,20.59634 -6.2134,29.09456 0,3.0567 0.2696,6.53862 0.8169,10.46291 0.5383,3.91987 1.5266,7.6308 2.9459,11.11468 1.4149,3.48825 3.4321,6.42673 6.0483,8.82049 2.6206,2.40259 5.8869,3.59769 9.8111,3.59769 4.3605,0 8.7635,-1.63095 13.2352,-4.90122 4.4627,-3.27027 8.7798,-7.20118 12.9222,-11.77511 4.1379,-4.57393 7.8983,-9.31387 11.2798,-14.21709 3.377,-4.90315 6.1537,-8.98729 8.3339,-12.25307 -0.2181,3.91984 -0.1103,8.76781 0.3301,14.53861 0.4316,5.77521 1.5234,11.34157 3.2676,16.67634 1.7397,5.3437 4.2467,9.92178 7.5169,13.73042 3.2703,3.81308 7.6282,5.71812 13.0787,5.71812 5.6639,0 11.3833,-1.63096 17.163,-4.90127 5.7753,-3.27023 11.2205,-7.30026 16.3461,-12.09666 5.1168,-4.7964 9.8523,-9.91369 14.2171,-15.36414 1.3526,-1.69102 2.2228,-2.90111 3.45,-4.46675 0.055,0.46203 0.083,0.90385 0.1477,1.37308 0.436,3.16348 1.3076,5.99394 2.6157,8.49892 1.3037,2.50943 3.1097,4.56738 5.3966,6.20475 2.287,1.63291 5.2835,2.45065 8.9942,2.45065 5.446,0 11.9293,-2.65995 19.4486,-8.00361 7.5194,-5.33923 14.9819,-11.66046 22.3945,-18.96188 7.4082,-7.30139 14.2279,-14.71867 20.4392,-22.23807 6.2113,-7.51939 10.6188,-13.57105 13.2351,-18.14498 0.654,17.00097 0.9819,33.89367 0.9819,50.67217 v 9.48093 c 0,3.0567 -0.1167,6.11159 -0.3302,9.15939 -8.5027,5.45045 -17.7083,12.19868 -27.6259,20.2654 -9.9222,8.05776 -19.1816,16.84089 -27.7911,26.32244 -8.6095,9.48154 -15.8024,19.55877 -21.5776,30.24162 -5.7753,10.67399 -8.6641,21.46113 -8.6641,32.3621 0,4.36036 0.4941,8.65991 1.4774,12.91352 0.9788,4.24915 2.5559,8.00951 4.7361,11.27981 2.1757,3.26578 5.0106,5.93883 8.499,8.01228 3.4838,2.06448 7.7335,3.10672 12.7658,3.11105 5.2279,0 10.2462,-0.98374 15.0426,-2.94591 4.7875,-1.96218 9.2579,-4.46473 13.4002,-7.51703 4.1423,-3.05666 8.0149,-6.58824 11.61,-10.61928 3.595,-4.03561 6.6996,-8.12393 9.3158,-12.2618 8.0623,-12.42257 14.3252,-25.82456 18.7967,-40.20923 4.4671,-14.38475 7.8458,-29.15671 10.1328,-44.30231 2.2914,-15.15452 3.7108,-30.40289 4.2582,-45.77093 0.5383,-15.3636 0.8168,-30.24779 0.8168,-44.63253 v -8.16873 c 0,-3.70635 -0.1574,-7.52055 -0.4867,-11.44493 -0.3292,-3.91988 -0.8816,-7.62639 -1.6424,-11.11467 -0.7652,-3.47941 -1.7943,-5.66289 -3.1024,-6.53498 -2.1802,-1.52612 -4.3592,-2.29419 -6.5349,-2.29419 -2.6162,0 -4.8579,1.09176 -6.7088,3.26749 -1.8554,2.18463 -3.5447,4.1478 -5.0663,5.89191 -7.8443,10.02885 -15.527,20.10605 -23.0464,30.24166 -7.5193,10.13561 -15.7542,19.77273 -24.6886,28.92944 -0.8721,0.87212 -2.3456,2.28732 -4.4146,4.24949 -2.0778,1.9666 -4.248,3.9297 -6.535,5.89191 -2.2914,1.96216 -4.533,3.70977 -6.7088,5.23146 -2.1801,1.52612 -3.9233,2.28549 -5.2313,2.28549 -1.7442,0 -2.7238,-0.86708 -2.9374,-2.61572 -0.218,-1.7397 -0.3302,-3.15495 -0.3302,-4.24948 0,-3.04781 0.4854,-6.87095 1.4687,-11.44489 0.9789,-4.57392 2.1784,-9.36325 3.5977,-14.38216 1.4104,-5.00997 2.9381,-9.81255 4.571,-14.39089 1.6329,-4.57392 2.9942,-8.27169 4.0843,-11.10596 1.09,-2.61622 2.5096,-5.83719 4.2582,-9.65474 1.7442,-3.80864 2.6157,-7.13332 2.6157,-9.96759 0,-3.70631 -1.4196,-6.8647 -4.2495,-9.48094 -2.8386,-2.6162 -6.1092,-3.92793 -9.8111,-3.92793 -3.0567,0 -5.5635,0.87601 -7.5256,2.61572 -1.9667,1.74416 -3.5932,3.92748 -4.9013,6.54367 -1.0901,1.96219 -1.9078,3.97071 -2.4506,6.03965 -0.5472,2.07339 -1.1448,4.20277 -1.7989,6.37855 -3.0522,9.37477 -5.7253,19.0833 -8.0123,29.10328 -1.2545,5.48813 -2.1269,10.9401 -2.6939,16.3635 -1.9602,3.01728 -4.7968,6.89328 -8.5858,11.74036 -3.9244,5.01447 -8.17,9.87079 -12.7484,14.556 -4.5785,4.68962 -9.2688,8.76921 -14.0608,12.25306 -4.7964,3.49273 -9.1542,5.23145 -13.0786,5.23145 -2.6118,0 -4.6334,-1.35692 -6.0483,-4.08432 -1.4194,-2.723 -2.4483,-5.88591 -3.1024,-9.48094 -0.654,-3.59511 -1.0403,-7.1311 -1.1471,-10.61935 -0.1113,-3.47943 -0.1651,-6.10303 -0.1651,-7.84722 0,-5.66398 0.3819,-11.71123 1.1471,-18.14498 0.7609,-6.42486 2.0143,-12.47655 3.7628,-18.14497 0.8633,-2.39825 2.0629,-5.55662 3.5891,-9.48095 1.5217,-3.92432 2.2942,-7.07828 2.2942,-9.48093 0,-2.17573 -0.8265,-3.59543 -2.4594,-4.24948 -1.6374,-0.64965 -3.3267,-0.982 -5.0663,-0.982 -3.0567,0 -5.3974,1.04215 -7.0304,3.11105 -1.6328,2.0734 -2.9941,4.30635 -4.0843,6.7001 -1.0945,2.18463 -2.6672,5.50486 -4.7361,9.96761 -2.0734,4.47159 -4.5308,9.31484 -7.3605,14.54728 -2.8387,5.23242 -5.8353,10.63247 -8.9944,16.1897 -3.159,5.5572 -6.3757,10.57121 -9.646,15.03395 -3.2658,4.46714 -6.4245,8.17363 -9.4722,11.11465 -3.0567,2.94102 -5.7837,4.4146 -8.1775,4.4146 -1.9621,0 -3.1574,-0.97512 -3.5889,-2.93723 -0.4405,-1.96667 -0.6606,-3.6018 -0.6606,-4.90995 0,-12.42258 2.5068,-24.03173 7.5257,-34.82136 5.0099,-10.78971 11.7671,-20.53899 20.2655,-29.25967 4.7918,-5.01442 9.8553,-9.43073 15.199,-13.24378 5.3347,-3.80869 10.955,-7.4613 16.8414,-10.94956 0.8676,-0.43602 1.6315,-0.92139 2.2855,-1.46864 0.6541,-0.5428 0.982,-1.35605 0.982,-2.45063 0,-2.3937 -1.1995,-4.68501 -3.5977,-6.86519 -2.3981,-2.17577 -4.793,-3.27619 -7.1867,-3.27619 z m -218.40045,10.79316 c -2.83422,0 -5.55253,0.54367 -8.16872,1.63373 -2.61179,1.09458 -4.79532,2.83771 -6.53498,5.23146 -2.61624,3.91989 -5.40151,9.4731 -8.34253,16.66766 -2.94102,7.19015 -5.66823,14.83205 -8.16872,22.88981 -2.50946,8.06668 -4.58053,15.91541 -6.21345,23.54159 -1.63291,7.63064 -2.45062,13.72304 -2.45062,18.30142 0,3.05225 0.16183,6.32728 0.48665,9.81117 0.32922,3.48828 1.09289,6.65115 2.29419,9.48093 1.1969,2.82979 2.9445,5.17068 5.23147,7.02161 2.29142,1.85538 5.50368,2.78084 9.64604,2.78084 5.23244,0 11.11782,-2.44865 17.65835,-7.35183 6.54054,-4.90323 13.01478,-10.67635 19.44853,-17.32813 6.42483,-6.64732 12.42263,-13.40005 17.97988,-20.26539 5.55721,-6.86535 9.97351,-12.25671 13.24376,-16.18104 0.21358,3.92433 0.64947,8.98782 1.30353,15.19907 0.65849,6.20683 1.57948,12.58644 2.78083,19.12699 1.19686,6.5405 2.78267,12.64612 4.74482,18.31009 1.96219,5.66851 4.36117,9.90977 7.19544,12.74841 2.6162,2.61181 5.55889,4.73695 8.82918,6.3699 3.27024,1.63732 6.74344,2.45061 10.45419,2.45061 9.15232,0 16.61925,-3.428 22.39449,-10.29783 5.77522,-6.86535 10.19152,-15.09588 13.24372,-24.68864 3.0523,-9.58834 5.119,-19.44565 6.2135,-29.58122 1.0857,-10.13122 1.6303,-18.57803 1.599,-25.31435 0,-2.17573 -0.1167,-5.39696 -0.3303,-9.64605 -0.2224,-4.24913 -0.7661,-8.5532 -1.6336,-12.91355 -0.8721,-4.36036 -2.1796,-8.17462 -3.9194,-11.44491 -1.7486,-3.27024 -4.1431,-4.90124 -7.1954,-4.90124 -2.3982,0 -4.25353,0.97512 -5.56167,2.93727 -1.3081,1.96214 -1.95527,4.03773 -1.95527,6.21345 0,3.48827 0.64717,5.83791 1.95527,7.03032 1.30814,1.20135 2.61985,3.10184 3.92797,5.7181 0.436,0.87208 0.8223,2.23345 1.1471,4.08437 0.3292,1.85538 0.5989,3.82297 0.8168,5.89192 0.2181,2.06894 0.3303,4.08615 0.3303,6.04831 v 4.90123 c 0,3.2703 -0.4446,8.66163 -1.3122,16.18103 -0.8721,7.52384 -2.23346,15.0985 -4.0844,22.72473 -1.85536,7.63509 -4.25441,14.37887 -7.19542,20.26536 -2.93656,5.88649 -6.59362,8.8292 -10.94957,8.8292 -2.18017,0 -4.13906,-1.57708 -5.88322,-4.73616 -1.74411,-3.15899 -3.27156,-7.19348 -4.57971,-12.09666 -1.30364,-4.90318 -2.49891,-10.29455 -3.58902,-16.18099 -1.09007,-5.88649 -1.96166,-11.61449 -2.61571,-17.17172 -0.64963,-5.5572 -1.1394,-10.56236 -1.46863,-15.03396 -0.32483,-4.46264 -0.49537,-7.56722 -0.49537,-9.31582 0,-3.48384 -0.48977,-6.87108 -1.46863,-10.14136 -0.97887,-3.2703 -3.64771,-4.90126 -8.00361,-4.90126 -2.18018,0 -4.41312,0.22016 -6.70008,0.65178 -2.29143,0.43604 -4.08848,1.63559 -5.39657,3.5977 -1.74417,2.39824 -3.59951,5.28698 -5.5617,8.66408 -1.96214,3.38147 -3.80883,6.48604 -5.55298,9.31583 -9.37035,13.73068 -19.7305,26.27415 -31.05855,37.6022 -0.87203,0.87206 -2.12991,2.06735 -3.76281,3.58902 -1.63734,1.52612 -3.32666,3.05359 -5.06636,4.57971 -1.74416,1.52613 -3.53693,2.82912 -5.38789,3.91925 -1.85535,1.0945 -3.43671,1.64243 -4.74481,1.64243 -1.09011,0 -1.69207,-0.60626 -1.79885,-1.80754 -0.11125,-1.19688 -0.15642,-2.12679 -0.15642,-2.78084 0,-6.09561 0.64713,-12.58316 1.95527,-19.44855 1.3081,-6.86534 3.05129,-13.78417 5.23147,-20.7607 2.17572,-6.97213 4.57919,-13.73799 7.19542,-20.27408 2.6162,-6.54054 5.3432,-12.42592 8.17742,-17.65836 0.43601,-1.09006 0.92138,-2.17292 1.46863,-3.2675 0.5428,-1.09006 0.82557,-2.17296 0.82557,-3.26748 0,-2.82977 -1.14992,-4.74793 -3.4413,-5.7268 -2.28696,-0.98328 -4.63656,-1.46862 -7.03032,-1.46862 z m 376.95185,122.60907 c -0.654,7.1946 -1.8535,15.20067 -3.5977,24.02823 -1.7441,8.8275 -3.8648,17.70518 -6.3698,26.64391 -2.5095,8.93433 -5.4522,17.48856 -8.8292,25.66201 -3.3814,8.17344 -7.2454,15.08782 -11.6013,20.76073 -1.5305,1.95769 -3.278,4.08294 -5.2401,6.36985 -1.9623,2.29142 -4.0829,4.4164 -6.3699,6.37855 -2.287,1.96219 -4.6905,3.59317 -7.1955,4.90121 -2.5094,1.3082 -5.0658,1.96401 -7.682,1.96401 -2.6118,0 -4.7371,-0.7142 -6.3699,-2.12908 -1.6373,-1.41939 -2.9447,-3.16253 -3.9279,-5.23146 -0.9834,-2.07344 -1.6261,-4.36019 -1.9553,-6.86523 -0.3248,-2.50944 -0.4953,-4.74659 -0.4953,-6.70878 0,-9.59278 2.3407,-18.95578 7.0303,-28.11259 4.6851,-9.15668 10.5167,-17.81875 17.4932,-25.99216 6.9721,-8.17345 14.4928,-15.75259 22.5595,-22.72473 8.0623,-6.97657 15.5788,-13.28939 22.5509,-18.94447 z"
         id="path2-1"
         inkscape:connector-curvature="0" />
    </g>
  </g>
</svg>
