<?xml version="1.0" encoding="UTF-8" standalone="no"?>
<svg
   xmlns:dc="http://purl.org/dc/elements/1.1/"
   xmlns:cc="http://creativecommons.org/ns#"
   xmlns:rdf="http://www.w3.org/1999/02/22-rdf-syntax-ns#"
   xmlns:svg="http://www.w3.org/2000/svg"
   xmlns="http://www.w3.org/2000/svg"
   xmlns:sodipodi="http://sodipodi.sourceforge.net/DTD/sodipodi-0.dtd"
   xmlns:inkscape="http://www.inkscape.org/namespaces/inkscape"
   viewBox="0 0 100 49"
   version="1.1"
   id="svg34"
   sodipodi:docname="RedTube logo.svg"
   width="100"
   height="49"
   inkscape:version="0.92.4 (5da689c313, 2019-01-14)">
  <title
     id="title38">Twistys logo</title>
  <metadata
     id="metadata38">
    <rdf:RDF>
      <cc:Work
         rdf:about="">
        <dc:format>image/svg+xml</dc:format>
        <dc:type
           rdf:resource="http://purl.org/dc/dcmitype/StillImage" />
        <dc:title>Twistys logo</dc:title>
        <cc:license
           rdf:resource="http://scripts.sil.org/OFL" />
        <dc:date>15 enero 2020</dc:date>
        <dc:creator>
          <cc:Agent>
            <dc:title>EEIM</dc:title>
          </cc:Agent>
        </dc:creator>
      </cc:Work>
      <cc:License
         rdf:about="http://scripts.sil.org/OFL">
        <cc:permits
           rdf:resource="http://scripts.sil.org/pub/OFL/Reproduction" />
        <cc:permits
           rdf:resource="http://scripts.sil.org/pub/OFL/Distribution" />
        <cc:permits
           rdf:resource="http://scripts.sil.org/pub/OFL/Embedding" />
        <cc:permits
           rdf:resource="http://scripts.sil.org/pub/OFL/DerivativeWorks" />
        <cc:requires
           rdf:resource="http://scripts.sil.org/pub/OFL/Notice" />
        <cc:requires
           rdf:resource="http://scripts.sil.org/pub/OFL/Attribution" />
        <cc:requires
           rdf:resource="http://scripts.sil.org/pub/OFL/ShareAlike" />
        <cc:requires
           rdf:resource="http://scripts.sil.org/pub/OFL/DerivativeRenaming" />
        <cc:requires
           rdf:resource="http://scripts.sil.org/pub/OFL/BundlingWhenSelling" />
      </cc:License>
    </rdf:RDF>
  </metadata>
  <sodipodi:namedview
     pagecolor="#ffffff"
     bordercolor="#666666"
     borderopacity="1"
     objecttolerance="10"
     gridtolerance="10"
     guidetolerance="10"
     inkscape:pageopacity="0"
     inkscape:pageshadow="2"
     inkscape:window-width="1366"
     inkscape:window-height="705"
     id="namedview36"
     showgrid="false"
     inkscape:showpageshadow="false"
     inkscape:zoom="6.50324"
     inkscape:cx="29.221363"
     inkscape:cy="23.996261"
     inkscape:window-x="-8"
     inkscape:window-y="-8"
     inkscape:window-maximized="1"
     inkscape:current-layer="svg34"
     showguides="false" />
  <defs
     id="defs4">
    <style
       id="style2">.cls-1{fill:#eb2227;}</style>
  </defs>
  <path
     inkscape:connector-curvature="0"
     style="opacity:1;fill:#d52977;stroke-width:0.34372818"
     d="m 40.590529,1.2263785 c -2.069249,-0.05673 -4.185327,0.583566 -5.882484,1.711424 -2.622645,1.749577 -4.00113,5.146007 -3.317112,8.2258115 0.460597,2.04862 1.742991,3.921864 3.561314,4.994296 3.368535,2.093304 8.04981,1.684388 11.033369,-0.907322 1.632711,-1.41616 2.550586,-3.506336 2.701825,-5.644324 -0.845571,1.543339 -1.484965,3.282885 -2.897688,4.413751 -2.942314,2.605459 -7.861069,2.70477 -10.748386,-0.03474 -2.017684,-1.804573 -2.732713,-4.932224 -1.450605,-7.3658195 1.584585,-3.626331 6.816121,-4.994558 9.875302,-2.426908 2.320166,1.92144 1.794677,5.9601855 -0.776409,7.4141555 -1.866444,1.251171 -5.01151,0.649875 -5.709279,-1.656541 -0.69433,-1.8458215 1.395455,-4.1627775 3.268774,-3.2415855 0.862759,0.336854 0.693995,1.28222 0.601188,2.007487 -0.5534,-0.24061 -1.099943,-0.491337 -1.646471,-0.745695 -0.164989,0.577462 -0.622206,1.1855995 -0.319726,1.7939985 0.491532,0.831823 1.660366,0.859489 2.485314,0.601693 1.811448,-0.659959 2.299838,-3.3375145 0.904303,-4.6368065 -1.512405,-1.381787 -4.011462,-1.337304 -5.657921,-0.206438 -2.437032,1.725515 -2.385715,5.8294685 0.01008,7.5687325 2.77045,2.01081 7.211566,1.395691 9.088321,-1.560371 1.876753,-2.8770045 1.632618,-7.5483905 -1.550303,-9.4045225 -1.107234,-0.581331 -2.331846,-0.866236 -3.573397,-0.900273 z M 21.103257,9.297109 C 15.228944,9.651149 9.3511123,10.05644 3.4905483,10.61328 c 0.01719,0.824947 0.03787,1.650297 0.06193,2.475245 2.014248,-0.130617 4.028528,-0.285442 6.049649,-0.323252 -2.887316,7.376406 -6.145678,14.605134 -9.09486495,21.957482 0.72870395,0.316229 1.45391595,0.632465 2.17918195,0.952132 1.144615,-2.189547 1.983037,-4.516822 2.983286,-6.771678 2.309853,-5.482465 4.6579317,-10.947595 6.9574727,-16.433495 2.852944,-0.257797 5.715756,-0.422813 8.5687,-0.714982 -0.03094,-0.818073 -0.06171,-1.63955 -0.09265,-2.457623 z m 42.398904,0.581049 c -1.563969,2.210171 -2.990487,4.513049 -4.344776,6.857275 -1.30616,0.2028 -2.615739,0.388386 -3.925349,0.573999 0.08593,0.794012 0.17187,1.584473 0.257796,2.375049 0.794012,0 1.588087,-0.0067 2.382099,-0.0136 -2.189548,4.880941 -4.275834,9.851193 -5.527006,15.068986 0.704641,0.378102 1.402362,0.762783 2.100133,1.15807 3.506023,-3.571334 7.634243,-6.465091 12.078654,-8.747444 -0.374666,-0.766513 -0.742778,-1.536617 -1.103691,-2.30657 -3.306665,1.539904 -6.272983,3.677768 -9.218728,5.805446 0.9865,-3.406346 2.357993,-6.692224 3.887585,-9.888896 0.388413,-0.687457 0.68738,-1.691372 1.642947,-1.694809 2.83232,-0.446846 5.702712,-0.59477 8.517847,-1.155047 -0.0825,-0.811198 -0.161625,-1.62578 -0.240681,-2.436979 -2.498899,0.140929 -4.95654,0.68069 -7.455446,0.797557 0.849012,-1.801131 2.058856,-3.396097 3.010985,-5.138798 -0.694333,-0.409037 -1.378351,-0.828016 -2.062369,-1.254239 z m 31.908311,7.956936 c -2.87014,-0.0034 -5.64742,0.949052 -8.208193,2.176162 -1.178987,0.598088 -2.406237,1.233704 -3.238057,2.288949 -0.945253,1.178986 -0.577355,3.162365 0.797557,3.849822 2.660456,1.385224 5.747333,1.63603 8.455913,2.890639 1.02088,0.350602 0.82466,1.691109 0.0478,2.199826 -3.23792,2.684518 -7.864608,3.358392 -11.882791,2.406266 -0.0032,-0.134054 -0.0066,-0.398658 -0.01009,-0.532713 2.082993,-1.983311 5.135192,-2.358289 7.888461,-2.471721 l -0.0514,-2.447049 c -2.574515,0.0275 -5.210928,0.295272 -7.575778,1.374576 -1.065555,0.498408 -2.138264,1.285793 -2.43043,2.488842 -0.24405,1.06212 -0.226934,2.364843 0.611763,3.172603 1.120549,1.082744 2.753378,1.333439 4.248599,1.398745 3.272294,0.103119 6.661496,-0.587612 9.421636,-2.412808 1.08274,-0.749329 2.18269,-1.66335 2.59861,-2.962643 0.39872,-1.278668 0.19231,-2.939043 -1.03823,-3.695244 -2.33048,-1.51928 -5.18311,-1.825446 -7.661384,-3.004433 -0.477777,-0.264672 -1.323344,-0.714773 -0.852437,-1.360983 1.072431,-1.158363 2.653471,-1.629439 4.100561,-2.148467 2.07613,-0.580902 4.36899,-1.364475 6.4726,-0.470781 -1.50553,1.127428 -3.33428,1.646645 -5.02199,2.426909 l 0.86956,2.2824 c 1.70146,-0.584336 3.51618,-1.007142 4.99077,-2.08301 1.19274,-0.873071 1.93528,-2.688009 1.03471,-4.007925 -0.82151,-1.082744 -2.29263,-1.323588 -3.56786,-1.357962 z m -45.148565,0.01712 c -2.870126,-0.0034 -5.64741,0.949053 -8.208184,2.176163 -1.178987,0.598087 -2.406238,1.233701 -3.238061,2.288946 -0.94525,1.178985 -0.577354,3.162367 0.797557,3.849823 2.660456,1.385224 5.746835,1.636031 8.455411,2.890639 1.020872,0.350603 0.825164,1.691109 0.04834,2.199827 -3.237919,2.684515 -7.864607,3.358391 -11.88279,2.406263 -0.0034,-0.134054 -0.0066,-0.398655 -0.01008,-0.532709 2.082992,-1.983311 5.135198,-2.357789 7.888461,-2.471219 -0.02062,-0.814636 -0.03811,-1.632917 -0.05186,-2.447553 -2.574524,0.02749 -5.210933,0.295775 -7.575782,1.375079 -1.065559,0.498408 -2.137761,1.28529 -2.429929,2.488339 -0.244048,1.06212 -0.226935,2.364841 0.61176,3.172604 1.120555,1.082743 2.753384,1.333939 4.248601,1.399248 3.272294,0.103119 6.661506,-0.588117 9.421644,-2.413314 1.082744,-0.749327 2.182691,-1.66335 2.598604,-2.96264 0.398722,-1.278669 0.192311,-2.939043 -1.038234,-3.695247 -2.330477,-1.519277 -5.183602,-1.82494 -7.661881,-3.003927 -0.477781,-0.264671 -1.323347,-0.715277 -0.852439,-1.361487 1.072432,-1.158362 2.653978,-1.629437 4.101073,-2.148467 2.076116,-0.5809 4.368476,-1.364474 6.472086,-0.470781 -1.505524,1.127429 -3.333775,1.646647 -5.021481,2.42691 0.295607,0.7562 0.584265,1.519325 0.869559,2.2824 1.701454,-0.584339 3.516179,-1.007145 4.99077,-2.083011 1.192734,-0.873069 1.935279,-2.688009 1.034712,-4.007925 -0.821512,-1.082744 -2.292628,-1.323588 -3.567862,-1.357961 z M 31.397984,18.19611 c -3.492279,2.739513 -6.317469,6.200901 -8.933241,9.758487 0.07218,-3.004182 0.601155,-5.97378 0.738648,-8.974525 -0.666834,-0.257797 -1.330274,-0.546643 -2.024607,-0.718507 -1.178987,0.756202 -1.907584,2.014294 -2.811588,3.055791 -1.845821,2.199859 -3.309794,4.674781 -4.925316,7.043069 0.158115,-3.141675 0.425787,-6.280054 0.49797,-9.425166 l -2.474742,0.02064 c -0.381538,5.279666 -0.580599,10.572867 -0.979324,15.855971 0.79745,0.206237 1.594631,0.422994 2.388643,0.642979 2.014246,-4.255355 4.334606,-8.387036 7.245983,-12.099296 -0.11343,3.798194 -0.756403,7.55523 -0.979826,11.346552 0.776826,0.171862 1.550301,0.350535 2.323688,0.53271 1.852696,-3.664142 3.966671,-7.225185 6.664937,-10.332487 1.467719,-1.766762 3.203486,-3.275796 4.836193,-4.881006 -0.525904,-0.604962 -1.048389,-1.213381 -1.567418,-1.825217 z m 40.3466,0.148031 c -2.327042,5.472151 -4.667805,10.933755 -6.939854,16.429969 0.608401,0.539654 1.206815,1.089631 1.798031,1.646471 3.382282,-1.969563 6.211195,-4.688302 9.222256,-7.152835 -2.815136,6.039306 -5.987738,11.906797 -8.844119,17.928912 0.745888,0.364353 1.491694,0.735486 2.237589,1.106712 4.743448,-9.421586 9.472885,-18.853429 14.168209,-28.295638 -0.690894,-0.381538 -1.367992,-0.790878 -2.100127,-1.083047 -1.237425,1.079308 -1.976178,2.595417 -3.082986,3.798465 -2.718888,3.148549 -5.637052,6.180264 -9.01934,8.627611 1.405851,-4.083491 3.368081,-7.954011 4.859864,-12.003128 -0.773389,-0.326543 -1.539882,-0.659764 -2.299523,-1.003492 z m -36.727385,0.237152 c -2.337352,5.399968 -4.911467,10.696719 -7.142262,16.137934 0.725265,0.340291 1.44678,0.680494 2.16861,1.027661 2.496434,-5.954457 5.24518,-10.874181 7.253034,-16.3338 C 36.533504,19.141543 35.7734,18.86315 35.017199,18.581293 Z"
     id="path5"
     sodipodi:nodetypes="cccccccccccccccccccccccccccccccccccccccccccccccccccccccccccccccccccccccccccccccccccccccccccccccccccccccccccccccccccccccccccccccccccccccccccc" />
</svg>
