<?xml version="1.0" encoding="UTF-8" standalone="no"?>
<svg
   xmlns:dc="http://purl.org/dc/elements/1.1/"
   xmlns:cc="http://creativecommons.org/ns#"
   xmlns:rdf="http://www.w3.org/1999/02/22-rdf-syntax-ns#"
   xmlns:svg="http://www.w3.org/2000/svg"
   xmlns="http://www.w3.org/2000/svg"
   xmlns:sodipodi="http://sodipodi.sourceforge.net/DTD/sodipodi-0.dtd"
   xmlns:inkscape="http://www.inkscape.org/namespaces/inkscape"
   viewBox="0 0 100 19"
   version="1.1"
   id="svg34"
   sodipodi:docname="X-Art logo.svg"
   width="100"
   height="19"
   inkscape:version="0.92.4 (5da689c313, 2019-01-14)">
  <title
     id="title38">Wicked logo</title>
  <metadata
     id="metadata38">
    <rdf:RDF>
      <cc:Work
         rdf:about="">
        <dc:format>image/svg+xml</dc:format>
        <dc:type
           rdf:resource="http://purl.org/dc/dcmitype/StillImage" />
        <dc:title>Wicked logo</dc:title>
        <cc:license
           rdf:resource="http://scripts.sil.org/OFL" />
        <dc:date>8 enero 2020</dc:date>
        <dc:creator>
          <cc:Agent>
            <dc:title>EEIM</dc:title>
          </cc:Agent>
        </dc:creator>
      </cc:Work>
      <cc:License
         rdf:about="http://scripts.sil.org/OFL">
        <cc:permits
           rdf:resource="http://scripts.sil.org/pub/OFL/Reproduction" />
        <cc:permits
           rdf:resource="http://scripts.sil.org/pub/OFL/Distribution" />
        <cc:permits
           rdf:resource="http://scripts.sil.org/pub/OFL/Embedding" />
        <cc:permits
           rdf:resource="http://scripts.sil.org/pub/OFL/DerivativeWorks" />
        <cc:requires
           rdf:resource="http://scripts.sil.org/pub/OFL/Notice" />
        <cc:requires
           rdf:resource="http://scripts.sil.org/pub/OFL/Attribution" />
        <cc:requires
           rdf:resource="http://scripts.sil.org/pub/OFL/ShareAlike" />
        <cc:requires
           rdf:resource="http://scripts.sil.org/pub/OFL/DerivativeRenaming" />
        <cc:requires
           rdf:resource="http://scripts.sil.org/pub/OFL/BundlingWhenSelling" />
      </cc:License>
    </rdf:RDF>
  </metadata>
  <sodipodi:namedview
     pagecolor="#ffffff"
     bordercolor="#666666"
     borderopacity="1"
     objecttolerance="10"
     gridtolerance="10"
     guidetolerance="10"
     inkscape:pageopacity="0"
     inkscape:pageshadow="2"
     inkscape:window-width="1366"
     inkscape:window-height="705"
     id="namedview36"
     showgrid="false"
     inkscape:showpageshadow="false"
     inkscape:zoom="1"
     inkscape:cx="54.657737"
     inkscape:cy="16.801496"
     inkscape:window-x="-8"
     inkscape:window-y="-8"
     inkscape:window-maximized="1"
     inkscape:current-layer="svg34" />
  <defs
     id="defs4">
    <style
       id="style2">.cls-1{fill:#eb2227;}</style>
  </defs>
  <path
     d="M 0.74161037,0.4360335 V 1.3489571 H 99.669327 V 0.4360335 Z M 42.022226,3.8637114 c -2.439996,0 -4.290612,0.074726 -5.552106,0.2407122 -1.302991,0.1659861 -2.116387,0.7385734 -2.43176,1.7178913 -0.265579,0.8299307 -0.398432,2.1662151 -0.398432,4.0003631 0,1.925438 0.174349,3.253197 0.522921,3.975236 0.348571,0.722041 1.029113,1.170268 2.03333,1.352852 1.054011,0.174287 3.087341,0.265514 6.099989,0.265514 2.315506,0 3.933935,-0.07459 4.83856,-0.232284 1.112105,-0.199183 1.784317,-0.72204 2.0001,-1.576869 0.09959,-0.398365 0.165953,-1.112106 0.215749,-2.157819 h -1.742855 c -0.0249,0.921224 -0.08299,1.477246 -0.165985,1.668128 -0.0913,0.224083 -0.265578,0.414902 -0.497958,0.514493 -0.24068,0.11619 -0.614181,0.199313 -1.112139,0.257409 -0.25728,0.03319 -0.854797,0.05806 -1.792618,0.09126 -0.937821,0.03321 -1.69309,0.04976 -2.274043,0.04976 -1.892241,0 -3.344587,-0.04147 -4.365403,-0.132756 -0.556052,-0.0415 -0.971081,-0.166017 -1.228361,-0.365203 -0.257277,-0.199182 -0.423265,-0.522822 -0.497957,-0.962686 -0.0498,-0.282177 -0.09123,-0.7967 -0.141025,-1.543638 -0.04149,-0.746938 -0.06646,-1.352786 -0.06646,-1.825847 0,-0.995918 0.0582,-1.77615 0.182682,-2.3405017 0.116192,-0.5643526 0.306978,-0.9295544 0.564256,-1.1121393 0.265578,-0.1742825 0.846561,-0.3070065 1.734588,-0.3899996 0.888025,-0.082992 2.215914,-0.1244895 3.983666,-0.1244895 2.431696,1e-7 3.983666,0.1161255 4.647611,0.348506 0.365169,0.1161901 0.605913,0.2988072 0.730403,0.5311878 0.12449,0.2323803 0.190787,0.6224154 0.190787,1.1701693 0,0.06639 1.66e-4,0.199248 0.0084,0.398432 h 1.668128 C 49.159726,6.685475 49.10993,6.0132963 49.010338,5.6730248 48.910746,5.3078553 48.678334,4.9840528 48.313164,4.7101757 47.931397,4.4279994 47.491565,4.2371801 47.018505,4.154187 46.014289,3.9633032 44.346032,3.8637114 42.022226,3.8637114 Z M 0.74161037,3.8969409 6.9078975,15.383213 H 9.9869069 L 15.09941,5.5650688 19.979303,15.383213 H 23.00855 L 29.357517,3.8969409 H 27.398914 L 21.813417,14.096819 H 21.282391 L 16.194852,3.8969411 H 13.970575 L 8.6922486,14.096819 H 8.1279929 L 2.6835183,3.8969411 Z m 29.36284463,0 V 15.383213 h 1.792618 V 3.8969411 Z m 20.715034,0 V 15.383213 h 1.792779 v -5.203762 h 2.34034 l 9.212229,5.203762 h 3.17027 L 56.811686,9.498973 66.812347,3.8969411 h -3.14547 L 54.944342,8.835028 H 52.60384 V 3.8969411 Z m 17.387044,0 V 15.374784 H 81.410858 V 14.03036 H 69.999312 V 10.096458 H 80.912899 V 8.752035 H 69.999312 V 5.2413636 H 81.394161 V 3.8969411 Z m 14.482285,0 V 15.383213 h 9.428139 c 1.792658,0 3.07891,-0.0581 3.85075,-0.165987 1.502172,-0.224082 2.481527,-0.962752 2.937989,-2.232546 0.290476,-0.829931 0.439923,-1.94207 0.439923,-3.352951 0,-1.128706 -0.0581,-2.008498 -0.165984,-2.6392444 C 99.063449,6.3617375 98.872531,5.8555443 98.606949,5.4820758 98.075796,4.7434378 97.312324,4.2869761 96.30811,4.1126905 95.478181,3.9716024 94.033999,3.8969411 91.97577,3.8969411 Z M 84.4816,5.2496303 h 7.469374 c 1.369388,0 2.232513,0.00833 2.572787,0.03323 0.464758,0.024898 0.92122,0.1079559 1.369382,0.2324454 0.307073,0.091292 0.580884,0.2573113 0.804966,0.4896911 0.539459,0.5726519 0.8134,1.7594532 0.8134,3.5687012 0,1.394283 -0.157785,2.423332 -0.473157,3.087277 -0.282178,0.647345 -0.871459,1.103743 -1.568605,1.219933 -0.340267,0.07468 -0.680413,0.124587 -1.02898,0.141184 -0.307072,0.0083 -1.112106,0.01653 -2.406802,0.01653 H 84.4816 Z M 0.74161037,17.864574 v 0.912925 H 99.669327 v -0.912925 z"
     id="path6"
     inkscape:connector-curvature="0"
     style="stroke-width:0.08299305" />
</svg>
